# This file uses centimeters as units for non-parametric coordinates.

mtllib StenPin.mtl
v -0.229042 0.152005 -0.000588
v -0.229042 0.147102 0.002974
v -0.229042 0.141042 0.002974
v -0.229042 0.136139 -0.000588
v -0.229042 0.134266 -0.006352
v -0.229042 0.136139 -0.012116
v -0.229042 0.141042 -0.015678
v -0.229042 0.147102 -0.015678
v -0.229042 0.152005 -0.012116
v -0.229042 0.153878 -0.006352
v 0.219006 0.144072 -0.006352
v 0.142625 0.152005 -0.000588
v 0.142625 0.147102 0.002974
v 0.142625 0.141042 0.002974
v 0.142625 0.136139 -0.000588
v 0.142625 0.134266 -0.006352
v 0.142625 0.136139 -0.012116
v 0.142625 0.141042 -0.015678
v 0.142625 0.147102 -0.015678
v 0.142625 0.152005 -0.012116
v 0.142625 0.153878 -0.006352
v -0.077254 0.381836 -0.036018
v -0.202254 0.291018 -0.036018
v -0.250000 0.144072 -0.036018
v -0.202254 -0.002874 -0.036018
v -0.077254 -0.093692 -0.036018
v 0.077254 -0.093692 -0.036018
v 0.202255 -0.002874 -0.036018
v 0.250000 0.144072 -0.036018
v 0.202254 0.291018 -0.036018
v 0.077254 0.381836 -0.036018
v -0.076303 0.378909 -0.014086
v -0.199764 0.289209 -0.014086
v -0.246922 0.144072 -0.014086
v -0.199764 -0.001065 -0.014086
v -0.076303 -0.090765 -0.014086
v 0.076303 -0.090765 -0.014086
v 0.199764 -0.001065 -0.014086
v 0.246922 0.144072 -0.014086
v 0.199764 0.289209 -0.014086
v 0.076303 0.378909 -0.014086
v -0.073473 0.370199 0.001409
v -0.192355 0.283826 0.001409
v -0.237764 0.144072 0.001409
v -0.192355 0.004318 0.001409
v -0.073473 -0.082055 0.001409
v 0.073473 -0.082055 0.001409
v 0.192355 0.004318 0.001409
v 0.237764 0.144072 0.001409
v 0.192355 0.283826 0.001409
v 0.073473 0.370199 0.001409
v -0.068834 0.355922 0.009486
v -0.180210 0.275002 0.009486
v -0.222752 0.144072 0.009486
v -0.180210 0.013142 0.009486
v -0.068834 -0.067777 0.009486
v 0.068834 -0.067777 0.009486
v 0.180210 0.013142 0.009486
v 0.222752 0.144072 0.009486
v 0.180210 0.275002 0.009486
v 0.068834 0.355921 0.009486
v -0.054627 0.312197 0.023168
v -0.143015 0.247979 0.023168
v -0.176777 0.144072 0.023168
v -0.143015 0.040165 0.023168
v -0.054627 -0.024053 0.023168
v 0.054627 -0.024053 0.023168
v 0.143016 0.040165 0.023168
v 0.176777 0.144072 0.023168
v 0.143016 0.247979 0.023168
v 0.054627 0.312197 0.023168
v -0.035072 0.252015 0.031363
v -0.091821 0.210784 0.031363
v -0.113497 0.144072 0.031363
v -0.091821 0.077360 0.031363
v -0.035072 0.036129 0.031363
v 0.035073 0.036129 0.031363
v 0.091822 0.077360 0.031363
v 0.113498 0.144072 0.031363
v 0.091822 0.210784 0.031363
v 0.035073 0.252015 0.031363
v -0.012085 0.181267 0.035492
v -0.031639 0.167060 0.035492
v -0.039108 0.144072 0.035492
v -0.031639 0.121085 0.035492
v -0.012085 0.106878 0.035492
v 0.012085 0.106878 0.035492
v 0.031640 0.121085 0.035492
v 0.039109 0.144072 0.035492
v 0.031640 0.167059 0.035492
v 0.012085 0.181267 0.035492
v 0.000000 0.144072 0.036018
v 0.011264 0.109407 0.032624
v 0.029488 0.122648 0.032624
v 0.036449 0.144072 0.032624
v 0.029488 0.165496 0.032624
v 0.011264 0.178737 0.032624
v -0.011263 0.178737 0.032624
v -0.029488 0.165496 0.032624
v -0.036449 0.144072 0.032624
v -0.029488 0.122648 0.032624
v -0.011263 0.109407 0.032624
v 0.068477 -0.066679 0.000267
v 0.179275 0.013821 0.000267
v 0.221597 0.144072 0.000267
v 0.179275 0.274323 0.000267
v 0.068477 0.354823 0.000267
v -0.068477 0.354823 0.000267
v -0.179275 0.274323 0.000267
v -0.221596 0.144072 0.000267
v -0.179275 0.013821 0.000267
v -0.068477 -0.066678 0.000267
v 0.000000 0.144072 0.033114
v 0.072001 -0.077524 -0.036018
v 0.188501 0.007118 -0.036018
v 0.233000 0.144072 -0.036018
v 0.188501 0.281026 -0.036018
v 0.072001 0.365668 -0.036018
v -0.072001 0.365668 -0.036018
v -0.188501 0.281026 -0.036018
v -0.233000 0.144072 -0.036018
v -0.188501 0.007118 -0.036018
v -0.072001 -0.077524 -0.036018
vt 0.779401 0.107586
vt 0.489593 0.113591
vt 0.489495 0.108865
vt 0.779303 0.102861
vt 0.489397 0.104139
vt 0.779205 0.098135
vt 0.778912 0.083959
vt 0.489104 0.089963
vt 0.489006 0.085237
vt 0.778814 0.079233
vt 0.778716 0.074507
vt 0.488908 0.080511
vt 0.838472 0.061450
vt 0.779827 0.074411
vt 0.778989 0.069759
vt 0.781028 0.078983
vt 0.778520 0.065056
vt 0.782584 0.083446
vt 0.778422 0.060331
vt 0.784487 0.087772
vt 0.792144 0.099672
vt 0.786724 0.091936
vt 0.789282 0.095911
vt 0.488810 0.075786
vt 0.778618 0.069782
vt 0.488712 0.071060
vt 0.488614 0.066335
vt 0.489300 0.099414
vt 0.779108 0.093410
vt 0.489202 0.094688
vt 0.779010 0.088684
vt 0.795293 0.103197
vt 0.253012 0.478776
vt 0.259239 0.476658
vt 0.269700 0.521635
vt 0.263177 0.522469
vt 0.270986 0.567794
vt 0.264426 0.567311
vt 0.263043 0.613283
vt 0.256712 0.611502
vt 0.246192 0.656276
vt 0.240343 0.653268
vt 0.221109 0.695046
vt 0.215976 0.690933
vt 0.188800 0.728038
vt 0.184591 0.722984
vt 0.150562 0.753919
vt 0.147446 0.748142
vt 0.108136 0.771709
vt 0.105860 0.765544
vt 0.207453 0.401207
vt 0.212618 0.397098
vt 0.240011 0.434669
vt 0.234332 0.437987
vt 0.247985 0.480500
vt 0.257906 0.523156
vt 0.259124 0.566933
vt 0.251592 0.610075
vt 0.235610 0.650849
vt 0.211821 0.687619
vt 0.181179 0.718909
vt 0.144919 0.743468
vt 0.104603 0.760331
vt 0.857358 0.249257
vt 0.992125 0.433649
vt 0.968175 0.655280
vt 0.993202 0.663361
vt 0.859036 0.849485
vt 0.843539 0.828240
vt 0.641107 0.921165
vt 0.641057 0.894868
vt 0.422677 0.851044
vt 0.438094 0.829740
vt 0.287191 0.665917
vt 0.312185 0.657744
vt 0.286409 0.436506
vt 0.311433 0.444585
vt 0.420639 0.250448
vt 0.436137 0.271694
vt 0.638634 0.178835
vt 0.638686 0.205134
vt 0.841876 0.270494
vt 0.967196 0.441888
vt 0.800159 0.768769
vt 0.898129 0.632672
vt 0.640918 0.821256
vt 0.481249 0.770105
vt 0.382152 0.634864
vt 0.381486 0.467199
vt 0.479516 0.331164
vt 0.638818 0.278739
vt 0.798583 0.329989
vt 0.897367 0.464910
vt 0.742498 0.689990
vt 0.805192 0.602858
vt 0.640576 0.723621
vt 0.538361 0.690912
vt 0.474903 0.604363
vt 0.474449 0.497040
vt 0.537177 0.409943
vt 0.639135 0.376348
vt 0.741366 0.409074
vt 0.804720 0.495517
vt 0.675182 0.598154
vt 0.696760 0.568163
vt 0.640101 0.609737
vt 0.604917 0.598487
vt 0.583071 0.568703
vt 0.582909 0.531764
vt 0.604494 0.501779
vt 0.639581 0.490203
vt 0.674764 0.501452
vt 0.696599 0.531224
vt 0.639838 0.549967
vt 0.111276 0.587653
vt 0.084244 0.607140
vt 0.076715 0.583735
vt 0.110042 0.583859
vt 0.114504 0.589997
vt 0.104095 0.621650
vt 0.118494 0.589996
vt 0.128692 0.621718
vt 0.121719 0.587652
vt 0.148592 0.607353
vt 0.122950 0.583857
vt 0.156271 0.583986
vt 0.121717 0.580063
vt 0.148749 0.560576
vt 0.118489 0.577719
vt 0.128904 0.546061
vt 0.114500 0.577719
vt 0.104319 0.545985
vt 0.111273 0.580065
vt 0.084384 0.560375
vt 0.180731 0.451420
vt 0.186841 0.448497
vt 0.195718 0.472558
vt 0.189173 0.474304
vt 0.168211 0.430488
vt 0.173678 0.426487
vt 0.152045 0.412224
vt 0.156679 0.407284
vt 0.153046 0.612457
vt 0.132136 0.627551
vt 0.165394 0.589674
vt 0.170715 0.593866
vt 0.178646 0.569198
vt 0.184650 0.572335
vt 0.187893 0.546627
vt 0.194372 0.548604
vt 0.192817 0.522739
vt 0.199550 0.523486
vt 0.193249 0.498352
vt 0.200003 0.497843
vt 0.116496 0.583858
vt 0.058908 0.050422
vt 0.168356 0.000000
vt 0.169911 0.013167
vt 0.067905 0.060161
vt 0.000000 0.155547
vt 0.013003 0.158137
vt 0.014133 0.275219
vt 0.026175 0.269672
vt 0.095909 0.363729
vt 0.102390 0.352163
vt 0.214092 0.387269
vt 0.212537 0.374102
vt 0.323540 0.336847
vt 0.314542 0.327108
vt 0.382448 0.231722
vt 0.369445 0.229132
vt 0.368315 0.112049
vt 0.356273 0.117597
vt 0.286539 0.023539
vt 0.280057 0.035106
vt 0.168356 0.000000
vt 0.169911 0.013167
vt 0.203682 0.404994
vt 0.229764 0.440681
vn 1.000000 -0.000000 -0.000025
vn 0.011689 0.808962 0.587745
vn 0.011689 0.308996 0.950991
vn 0.011689 -0.308997 0.950991
vn 0.011689 -0.808962 0.587745
vn 0.011689 -0.999932 0.000000
vn 0.011689 -0.808962 -0.587745
vn 0.011689 -0.308996 -0.950992
vn 0.011689 0.308995 -0.950992
vn 0.011689 0.808962 -0.587745
vn 0.011689 0.999932 0.000000
vn 0.000000 0.809017 0.587785
vn 0.000000 0.309018 0.951056
vn 0.000000 -0.309018 0.951056
vn 0.000000 -0.809017 0.587785
vn 0.000000 -1.000000 0.000000
vn 0.000000 -0.809017 -0.587785
vn 0.000000 -0.309017 -0.951057
vn 0.000000 0.309016 -0.951057
vn 0.000000 0.809017 -0.587785
vn 0.000000 1.000000 0.000000
vn -0.295165 0.908426 0.296039
vn -0.306018 0.941827 0.138977
vn -0.801166 0.582081 0.138978
vn -0.772753 0.561438 0.296039
vn -0.990296 -0.000000 0.138978
vn -0.955176 -0.000000 0.296040
vn -0.801166 -0.582081 0.138978
vn -0.772753 -0.561438 0.296040
vn -0.306018 -0.941827 0.138978
vn -0.295165 -0.908426 0.296040
vn 0.306018 -0.941827 0.138978
vn 0.295166 -0.908426 0.296040
vn 0.801166 -0.582081 0.138978
vn 0.772753 -0.561438 0.296040
vn 0.990295 -0.000000 0.138978
vn 0.955176 -0.000000 0.296040
vn 0.801166 0.582081 0.138978
vn 0.772753 0.561438 0.296040
vn 0.306019 0.941827 0.138977
vn 0.295166 0.908426 0.296040
vn -0.225824 0.695016 0.682610
vn -0.591216 0.429543 0.682610
vn -0.730783 -0.000000 0.682610
vn -0.591216 -0.429544 0.682610
vn -0.225824 -0.695016 0.682610
vn 0.225825 -0.695016 0.682610
vn 0.591216 -0.429544 0.682610
vn 0.730783 0.000000 0.682610
vn 0.591216 0.429544 0.682610
vn 0.225825 0.695016 0.682610
vn -0.110432 0.339874 0.933965
vn -0.289114 0.210054 0.933965
vn -0.357364 -0.000000 0.933965
vn -0.289114 -0.210054 0.933965
vn -0.110432 -0.339874 0.933965
vn 0.110432 -0.339874 0.933965
vn 0.289114 -0.210054 0.933965
vn 0.357364 0.000000 0.933965
vn 0.289114 0.210054 0.933965
vn 0.110432 0.339874 0.933965
vn -0.181328 0.131743 0.974558
vn -0.069261 0.213164 0.974558
vn -0.224134 -0.000000 0.974558
vn -0.181328 -0.131743 0.974558
vn -0.069261 -0.213164 0.974558
vn 0.069261 -0.213164 0.974558
vn 0.181328 -0.131743 0.974558
vn 0.224134 0.000000 0.974558
vn 0.181328 0.131743 0.974558
vn 0.069261 0.213164 0.974558
vn -0.086776 0.063046 0.994231
vn -0.033145 0.102011 0.994231
vn -0.107261 -0.000000 0.994231
vn -0.086776 -0.063046 0.994231
vn -0.033145 -0.102011 0.994231
vn 0.033145 -0.102011 0.994231
vn 0.086776 -0.063046 0.994231
vn 0.107261 0.000000 0.994231
vn 0.086776 0.063046 0.994231
vn 0.033145 0.102011 0.994231
vn -0.042039 0.030543 0.998649
vn -0.016058 0.049420 0.998649
vn -0.051963 -0.000000 0.998649
vn -0.042039 -0.030543 0.998649
vn -0.016058 -0.049420 0.998649
vn 0.016058 -0.049420 0.998649
vn 0.042039 -0.030543 0.998649
vn 0.051963 0.000000 0.998649
vn 0.042039 0.030543 0.998649
vn 0.016058 0.049420 0.998649
vn -0.000000 -0.000000 1.000000
vn -0.137000 0.099536 -0.985558
vn -0.139278 0.101191 -0.985070
vn -0.053199 0.163731 -0.985070
vn -0.052329 0.161053 -0.985558
vn -0.169341 -0.000000 -0.985558
vn -0.172157 -0.000000 -0.985070
vn -0.136999 -0.099536 -0.985558
vn -0.139278 -0.101191 -0.985070
vn -0.052329 -0.161053 -0.985558
vn -0.053199 -0.163731 -0.985070
vn 0.052329 -0.161053 -0.985558
vn 0.053199 -0.163731 -0.985070
vn 0.137000 -0.099536 -0.985558
vn 0.139278 -0.101191 -0.985070
vn 0.169341 0.000000 -0.985558
vn 0.172157 0.000000 -0.985070
vn 0.137000 0.099536 -0.985558
vn 0.139278 0.101191 -0.985070
vn 0.052329 0.161053 -0.985558
vn 0.053199 0.163731 -0.985070
vn -0.771797 0.560743 -0.299828
vn -0.771797 0.560743 -0.299828
vn -0.294800 0.907302 -0.299828
vn -0.294800 0.907302 -0.299828
vn -0.953993 -0.000000 -0.299827
vn -0.953993 -0.000000 -0.299827
vn -0.771797 -0.560744 -0.299827
vn -0.771797 -0.560743 -0.299827
vn -0.294800 -0.907302 -0.299827
vn -0.294800 -0.907302 -0.299827
vn 0.294800 -0.907302 -0.299827
vn 0.294800 -0.907302 -0.299827
vn 0.771797 -0.560743 -0.299828
vn 0.771797 -0.560743 -0.299828
vn 0.953993 0.000000 -0.299828
vn 0.953993 0.000000 -0.299828
vn 0.771797 0.560743 -0.299827
vn 0.771797 0.560743 -0.299827
vn 0.294801 0.907302 -0.299827
vn 0.294801 0.907302 -0.299827
vn 0.000000 -0.000000 -1.000000
vn -0.000000 0.000000 -1.000000
vn -0.000000 0.000000 -1.000000
vn -0.000000 0.000000 -1.000000
vn -0.000000 0.000000 -1.000000
vn -0.000000 0.000000 -1.000000
vn -0.000000 0.000000 -1.000000
vn -0.000000 0.000000 -1.000000
vn -0.000000 0.000000 -1.000000
vn -0.000000 0.000000 -1.000000
vn -0.000000 0.000000 -1.000000
vn -0.000000 0.000000 -1.000000
vn -0.000000 0.000000 -1.000000
vn 0.000000 0.000000 -1.000000
vn 0.000000 0.000000 -1.000000
vn 0.000000 0.000000 -1.000000
vn 0.000000 0.000000 -1.000000
vn 0.000000 0.000000 -1.000000
vn 0.000000 0.000000 -1.000000
vn -0.000000 0.000000 -1.000000
vn -0.000000 0.000000 -1.000000
g SM_StenPin
usemtl SG_StenPin
f 11/13/1 12/14/2 13/15/3
f 11/13/1 13/15/3 14/17/4
f 11/13/1 14/17/4 15/19/5
f 11/13/1 15/32/5 16/21/6
f 11/13/1 16/21/6 17/23/7
f 11/13/1 17/23/7 18/22/8
f 11/13/1 18/22/8 19/20/9
f 11/13/1 19/20/9 20/18/10
f 11/13/1 20/18/10 21/16/11
f 11/13/1 21/16/11 12/14/2
f 12/11/2 1/12/12 2/24/13 13/25/3
f 13/25/3 2/24/13 3/26/14 14/17/4
f 14/17/4 3/26/14 4/27/15 15/19/5
f 15/1/5 4/2/15 5/3/16 16/4/6
f 16/4/6 5/3/16 6/5/17 17/6/7
f 17/6/7 6/5/17 7/28/18 18/29/8
f 18/29/8 7/28/18 8/30/19 19/31/9
f 19/31/9 8/30/19 9/8/20 20/7/10
f 20/7/10 9/8/20 10/9/21 21/10/11
f 12/11/2 21/10/11 10/9/21 1/12/12
f 32/33/22 22/34/23 23/35/24 33/36/25
f 33/36/25 23/35/24 24/37/26 34/38/27
f 34/38/27 24/37/26 25/39/28 35/40/29
f 35/40/29 25/39/28 26/41/30 36/42/31
f 36/42/31 26/41/30 27/43/32 37/44/33
f 37/44/33 27/43/32 28/45/34 38/46/35
f 38/46/35 28/45/34 29/47/36 39/48/37
f 39/48/37 29/47/36 30/49/38 40/50/39
f 40/51/39 30/52/38 31/53/40 41/54/41
f 41/54/41 31/53/40 22/34/23 32/33/22
f 42/55/42 32/33/22 33/36/25 43/56/43
f 43/56/43 33/36/25 34/38/27 44/57/44
f 44/57/44 34/38/27 35/40/29 45/58/45
f 45/58/45 35/40/29 36/42/31 46/59/46
f 46/59/46 36/42/31 37/44/33 47/60/47
f 47/60/47 37/44/33 38/46/35 48/61/48
f 48/61/48 38/46/35 39/48/37 49/62/49
f 49/62/49 39/48/37 40/50/39 50/63/50
f 50/178/50 40/51/39 41/54/41 51/179/51
f 51/179/51 41/54/41 32/33/22 42/55/42
f 52/66/52 42/67/42 43/68/43 53/69/53
f 53/69/53 43/68/43 44/70/44 54/71/54
f 54/71/54 44/70/44 45/72/45 55/73/55
f 55/73/55 45/72/45 46/74/46 56/75/56
f 56/75/56 46/74/46 47/76/47 57/77/57
f 57/77/57 47/76/47 48/78/48 58/79/58
f 58/79/58 48/78/48 49/80/49 59/81/59
f 59/81/59 49/80/49 50/64/50 60/82/60
f 60/82/60 50/64/50 51/65/51 61/83/61
f 61/83/61 51/65/51 42/67/42 52/66/52
f 53/69/53 63/84/62 62/85/63 52/66/52
f 54/71/54 64/86/64 63/84/62 53/69/53
f 55/73/55 65/87/65 64/86/64 54/71/54
f 56/75/56 66/88/66 65/87/65 55/73/55
f 57/77/57 67/89/67 66/88/66 56/75/56
f 58/79/58 68/90/68 67/89/67 57/77/57
f 59/81/59 69/91/69 68/90/68 58/79/58
f 60/82/60 70/92/70 69/91/69 59/81/59
f 61/83/61 71/93/71 70/92/70 60/82/60
f 52/66/52 62/85/63 71/93/71 61/83/61
f 63/84/62 73/94/72 72/95/73 62/85/63
f 64/86/64 74/96/74 73/94/72 63/84/62
f 65/87/65 75/97/75 74/96/74 64/86/64
f 66/88/66 76/98/76 75/97/75 65/87/65
f 67/89/67 77/99/77 76/98/76 66/88/66
f 68/90/68 78/100/78 77/99/77 67/89/67
f 69/91/69 79/101/79 78/100/78 68/90/68
f 70/92/70 80/102/80 79/101/79 69/91/69
f 71/93/71 81/103/81 80/102/80 70/92/70
f 62/85/63 72/95/73 81/103/81 71/93/71
f 73/94/72 83/104/82 82/105/83 72/95/73
f 74/96/74 84/106/84 83/104/82 73/94/72
f 75/97/75 85/107/85 84/106/84 74/96/74
f 76/98/76 86/108/86 85/107/85 75/97/75
f 77/99/77 87/109/87 86/108/86 76/98/76
f 78/100/78 88/110/88 87/109/87 77/99/77
f 79/101/79 89/111/89 88/110/88 78/100/78
f 80/102/80 90/112/90 89/111/89 79/101/79
f 81/103/81 91/113/91 90/112/90 80/102/80
f 72/95/73 82/105/83 91/113/91 81/103/81
f 92/114/92 82/105/83 83/104/82
f 92/114/92 83/104/82 84/106/84
f 92/114/92 84/106/84 85/107/85
f 92/114/92 85/107/85 86/108/86
f 92/114/92 86/108/86 87/109/87
f 92/114/92 87/109/87 88/110/88
f 92/114/92 88/110/88 89/111/89
f 92/114/92 89/111/89 90/112/90
f 92/114/92 90/112/90 91/113/91
f 92/114/92 91/113/91 82/105/83
f 94/115/93 104/116/94 103/117/95 93/118/96
f 95/119/97 105/120/98 104/116/94 94/115/93
f 96/121/99 106/122/100 105/120/98 95/119/97
f 97/123/101 107/124/102 106/122/100 96/121/99
f 98/125/103 108/126/104 107/124/102 97/123/101
f 99/127/105 109/128/106 108/126/104 98/125/103
f 100/129/107 110/130/108 109/128/106 99/127/105
f 101/131/109 111/132/110 110/130/108 100/129/107
f 102/133/111 112/134/112 111/132/110 101/131/109
f 93/118/96 103/117/95 112/134/112 102/133/111
f 104/135/113 115/136/114 114/137/115 103/138/116
f 105/139/117 116/140/118 115/136/114 104/135/113
f 106/141/119 117/142/120 116/140/118 105/139/117
f 107/124/121 118/143/122 117/144/120 106/122/119
f 108/145/123 119/146/124 118/143/122 107/124/121
f 109/147/125 120/148/126 119/146/124 108/145/123
f 110/149/127 121/150/128 120/148/126 109/147/125
f 111/151/129 122/152/130 121/150/128 110/149/127
f 112/153/131 123/154/132 122/152/130 111/151/129
f 103/138/116 114/137/115 123/154/132 112/153/131
f 94/115/93 93/118/96 113/155/133
f 95/119/97 94/115/93 113/155/133
f 96/121/99 95/119/97 113/155/133
f 97/123/101 96/121/99 113/155/133
f 98/125/103 97/123/101 113/155/133
f 99/127/105 98/125/103 113/155/133
f 100/129/107 99/127/105 113/155/133
f 101/131/109 100/129/107 113/155/133
f 102/133/111 101/131/109 113/155/133
f 93/118/96 102/133/111 113/155/133
f 31/156/134 30/157/135 117/158/136 118/159/137
f 22/160/138 31/156/134 118/159/137 119/161/139
f 23/162/140 22/160/138 119/161/139 120/163/141
f 24/164/142 23/162/140 120/163/141 121/165/143
f 25/166/144 24/164/142 121/165/143 122/167/145
f 26/168/146 25/166/144 122/167/145 123/169/147
f 27/170/148 26/168/146 123/169/147 114/171/149
f 28/172/150 27/170/148 114/171/149 115/173/151
f 29/174/152 28/172/150 115/173/151 116/175/153
f 30/176/135 29/174/152 116/175/153 117/177/136
